<svg width="14" height="14" viewBox="0 0 14 14" fill="none" xmlns="http://www.w3.org/2000/svg">
<path d="M12.5433 11.5449L11.9182 3.66688C11.8794 3.1593 11.4499 2.76186 10.941 2.76186H9.70603V4.59162C9.70603 4.81822 9.52261 5.00164 9.29601 5.00164C9.06969 5.00164 8.88599 4.81822 8.88599 4.59162V2.76186H5.1139V4.59162C5.1139 4.81822 4.9302 5.00164 4.70388 5.00164C4.47728 5.00164 4.29386 4.81822 4.29386 4.59162V2.76186H3.0589C2.54995 2.76186 2.12052 3.1593 2.08172 3.66579L1.45631 11.546C1.40794 12.1771 1.62688 12.8052 2.05684 13.2694C2.48682 13.7335 3.09636 14 3.72915 14H10.2708C10.9036 14 11.5131 13.7335 11.9431 13.2693C12.373 12.8052 12.592 12.1771 12.5433 11.5449ZM8.84719 7.53301L6.7266 9.6536C6.64651 9.73369 6.54154 9.77386 6.43659 9.77386C6.33162 9.77386 6.22668 9.73369 6.14659 9.6536L5.15272 8.65974C4.99254 8.49956 4.99254 8.24015 5.15272 8.07997C5.3129 7.91979 5.57259 7.91979 5.73249 8.07997L6.43662 8.78382L8.26745 6.953C8.42736 6.79309 8.68704 6.79309 8.84722 6.953C9.00737 7.11318 9.00737 7.37283 8.84719 7.53301Z" fill="#99CFE5"/>
<path d="M7.00002 0C5.50784 0 4.29395 1.21417 4.29395 2.70635V2.76183H5.11398V2.70635C5.11398 1.66627 5.95997 0.820012 7.00005 0.820012C8.04012 0.820012 8.88611 1.66627 8.88611 2.70635V2.76183H9.70612V2.70635C9.70609 1.21417 8.49219 0 7.00002 0Z" fill="#99CFE5"/>
</svg>
