<svg width="14" height="14" viewBox="0 0 14 14" fill="none" xmlns="http://www.w3.org/2000/svg">
<g clip-path="url(#clip0)">
<path d="M5.3958 14H1.0208C0.457901 14 0 13.5421 0 12.9792V10.3542C0 9.7912 0.457901 9.3333 1.0208 9.3333H5.3958C5.9588 9.3333 6.4167 9.7912 6.4167 10.3542V12.9792C6.4167 13.5421 5.9588 14 5.3958 14Z" fill="#99CFE5"/>
<path d="M5.3958 8.16672H1.0208C0.457901 8.16672 0 7.70882 0 7.14581V1.02081C0 0.457912 0.457901 1.14441e-05 1.0208 1.14441e-05H5.3958C5.9588 1.14441e-05 6.4167 0.457912 6.4167 1.02081V7.14581C6.4167 7.70882 5.9588 8.16672 5.3958 8.16672Z" fill="#99CFE5"/>
<path d="M12.9794 4.66672H8.6044C8.0414 4.66672 7.5835 4.20882 7.5835 3.64581V1.02081C7.5835 0.457914 8.0414 1.33514e-05 8.6044 1.33514e-05H12.9794C13.5423 1.33514e-05 14.0002 0.457914 14.0002 1.02081V3.64581C14.0002 4.20882 13.5423 4.66672 12.9794 4.66672Z" fill="#99CFE5"/>
<path d="M12.9794 14H8.6044C8.0414 14 7.5835 13.5421 7.5835 12.9792V6.8542C7.5835 6.2912 8.0414 5.8333 8.6044 5.8333H12.9794C13.5423 5.8333 14.0002 6.2912 14.0002 6.8542V12.9792C14.0002 13.5421 13.5423 14 12.9794 14V14Z" fill="#99CFE5"/>
</g>
<defs>
<clipPath id="clip0">
<rect width="14" height="14" fill="white" transform="matrix(1 0 0 -1 0 14)"/>
</clipPath>
</defs>
</svg>
