<svg width="16" height="16" viewBox="0 0 16 16" fill="none" xmlns="http://www.w3.org/2000/svg">
<path d="M10 7.33334V3.88667C10 3.53334 9.86 3.19334 9.60667 2.94667L8.46667 1.80667C8.40499 1.74487 8.33173 1.69584 8.25108 1.66238C8.17043 1.62893 8.08398 1.61171 7.99667 1.61171C7.90935 1.61171 7.8229 1.62893 7.74225 1.66238C7.6616 1.69584 7.58834 1.74487 7.52667 1.80667L6.39333 2.94001C6.14 3.19334 6 3.53334 6 3.88667V4.66667H3.33333C2.6 4.66667 2 5.26667 2 6.00001V12.6667C2 13.4 2.6 14 3.33333 14H12.6667C13.4 14 14 13.4 14 12.6667V8.66667C14 7.93334 13.4 7.33334 12.6667 7.33334H10ZM4.66667 12.6667H3.33333V11.3333H4.66667V12.6667ZM4.66667 10H3.33333V8.66667H4.66667V10ZM4.66667 7.33334H3.33333V6.00001H4.66667V7.33334ZM8.66667 12.6667H7.33333V11.3333H8.66667V12.6667ZM8.66667 10H7.33333V8.66667H8.66667V10ZM8.66667 7.33334H7.33333V6.00001H8.66667V7.33334ZM8.66667 4.66667H7.33333V3.33334H8.66667V4.66667ZM12.6667 12.6667H11.3333V11.3333H12.6667V12.6667ZM12.6667 10H11.3333V8.66667H12.6667V10Z" fill="#99CFE5"/>
</svg>
