<svg width="12" height="12" viewBox="0 0 12 12" fill="none" xmlns="http://www.w3.org/2000/svg">
<path d="M11.5433 9.54486L10.9182 1.66688C10.8794 1.1593 10.4499 0.761856 9.94098 0.761856H8.70603V2.59162C8.70603 2.81822 8.52261 3.00164 8.29601 3.00164C8.06969 3.00164 7.88599 2.81822 7.88599 2.59162V0.761856H4.1139V2.59162C4.1139 2.81822 3.9302 3.00164 3.70388 3.00164C3.47728 3.00164 3.29386 2.81822 3.29386 2.59162V0.761856H2.0589C1.54995 0.761856 1.12052 1.1593 1.08172 1.66579L0.456314 9.54595C0.407943 10.1771 0.626884 10.8052 1.05684 11.2694C1.48682 11.7335 2.09636 12 2.72915 12H9.27076C9.90355 12 10.5131 11.7335 10.9431 11.2693C11.373 10.8052 11.592 10.1771 11.5433 9.54486ZM7.84719 5.53301L5.7266 7.6536C5.64651 7.73369 5.54154 7.77386 5.43659 7.77386C5.33162 7.77386 5.22668 7.73369 5.14659 7.6536L4.15272 6.65974C3.99254 6.49956 3.99254 6.24015 4.15272 6.07997C4.3129 5.91979 4.57259 5.91979 4.73249 6.07997L5.43662 6.78382L7.26745 4.953C7.42736 4.79309 7.68704 4.79309 7.84722 4.953C8.00737 5.11318 8.00737 5.37283 7.84719 5.53301Z" fill="#99CFE5"/>
</svg>
