<svg width="12" height="14" viewBox="0 0 12 14" fill="none" xmlns="http://www.w3.org/2000/svg">
<path d="M5.66622 9.3397C4.93338 9.3397 4.33301 9.94073 4.33301 10.6736V12.6662C4.33301 13.399 4.93338 14.0001 5.66622 14.0001C6.39906 14.0001 7.00008 13.399 7.00008 12.6662V10.6736C7.00008 9.94073 6.39906 9.3397 5.66622 9.3397Z" fill="#99CFE5"/>
<path d="M5.66627 4.00092C4.85174 4.00092 4.17076 4.59291 4.02905 5.36799L1.62562 5.66874C1.45898 5.68975 1.33399 5.83147 1.33398 5.99944V6.99935C1.334 7.18342 1.48322 7.33263 1.66729 7.33265H2.6672V11.6656C2.6672 12.2133 3.11821 12.6648 3.6658 12.6655V10.6735C3.6658 9.58288 4.57566 8.67302 5.66627 8.67302C6.75688 8.67302 7.66674 9.58288 7.66674 10.6735V12.6655C8.21492 12.6655 8.66665 12.2138 8.66665 11.6656V7.33265H9.66655C9.85063 7.33263 9.99984 7.18342 9.99986 6.99935V5.99944C9.99985 5.83147 9.87487 5.68975 9.70822 5.66874L7.30609 5.36864C7.1642 4.59325 6.48102 4.00092 5.66627 4.00092ZM5.66627 4.66753C6.22245 4.66753 6.66683 5.10995 6.66683 5.66614C6.66683 6.22232 6.22245 6.66539 5.66627 6.66539C5.11009 6.66539 4.66766 6.22232 4.66766 5.66614C4.66767 5.10995 5.11009 4.66753 5.66627 4.66753Z" fill="#99CFE5"/>
<path d="M0.334605 2.47651e-06C0.150534 -0.000699526 0.000736033 0.147932 0 0.332003V1.33386H11.3323V0.332003C11.3316 0.148948 11.1833 0.000734276 11.0003 2.47651e-06H0.334605ZM0 2.00047V9.66709C0.000735966 9.85116 0.150534 9.99979 0.334605 9.99909H2.00047V7.99927H1.66716C1.11495 7.99921 0.667312 7.55157 0.667257 6.99936V5.99945C0.667327 5.49533 1.04263 5.07009 1.54283 5.00736L3.51986 4.75998C3.8774 3.92613 4.70985 3.33368 5.66615 3.33368C6.62244 3.33368 7.45489 3.92613 7.81244 4.75998L9.79077 5.00736C10.291 5.07009 10.6663 5.49533 10.6663 5.99945V6.99936C10.6663 7.55157 10.2186 7.99921 9.66643 7.99927H9.33313V9.99909H11.0003C11.1833 9.99835 11.3316 9.85014 11.3323 9.66709V2.00047H0Z" fill="#99CFE5"/>
</svg>
