<svg width="14" height="14" viewBox="0 0 14 14" fill="none" xmlns="http://www.w3.org/2000/svg">
<path d="M11.7274 1.09151H11.0331V2.52752C11.0331 2.75403 10.8494 2.93768 10.6229 2.93768C10.3964 2.93768 10.2127 2.75403 10.2127 2.52752V1.09151H3.78696V2.52752C3.78696 2.75403 3.60332 2.93768 3.37681 2.93768C3.15029 2.93768 2.96665 2.75403 2.96665 2.52752V1.09151H2.29397C1.03889 1.09151 0.0214844 2.3488 0.0214844 3.89977V4.09136H13.9999V3.89977C13.9999 2.3488 12.9824 1.09151 11.7274 1.09151Z" fill="#99CFE5"/>
<path d="M3.78711 0.410156C3.78711 0.183641 3.60347 0 3.37695 0C3.15044 0 2.9668 0.183641 2.9668 0.410156V1.09151H3.78711V0.410156Z" fill="#99CFE5"/>
<path d="M11.0332 0.410156C11.0332 0.183641 10.8496 0 10.623 0C10.3965 0 10.2129 0.183641 10.2129 0.410156V1.09151H11.0332V0.410156Z" fill="#99CFE5"/>
<path d="M5.44775 8.5432V11.3069H8.55187V8.5432L6.99981 6.83479L5.44775 8.5432Z" fill="#99CFE5"/>
<path d="M0 4.91165V11.3752C0 12.8248 1.17452 14 2.62339 14H11.3766C12.8255 14 14 12.8248 14 11.3752V4.91165H0ZM9.58202 9.06694C9.52109 9.12229 9.448 9.15562 9.37237 9.16792V11.7171C9.37237 11.9436 9.18873 12.1272 8.96221 12.1272H5.03779C4.81127 12.1272 4.62763 11.9436 4.62763 11.7171V9.16792C4.552 9.15565 4.47893 9.12231 4.41798 9.06694C4.25031 8.91461 4.23787 8.65523 4.3902 8.48756C4.3902 8.48756 6.71521 5.92925 6.72325 5.92217C6.72358 5.92187 6.72386 5.92154 6.72418 5.92124C6.89183 5.76893 7.15124 5.78135 7.30357 5.94902L9.6098 8.48756C9.76213 8.65523 9.74969 8.91464 9.58202 9.06694Z" fill="#99CFE5"/>
</svg>
