<svg width="14" height="14" viewBox="0 0 14 14" fill="none" xmlns="http://www.w3.org/2000/svg">
<path d="M5.75266 1.14844H8.24745C8.46431 1.14844 8.64073 0.964441 8.64073 0.738281V0H5.35938V0.738281C5.35938 0.964441 5.5358 1.14844 5.75266 1.14844Z" fill="#99CFE5"/>
<path d="M11.9219 0H9.46099V0.738281C9.46099 1.41676 8.91658 1.96875 8.24739 1.96875H5.75258C5.08337 1.96875 4.53895 1.41676 4.53895 0.738281V0H2.07812C1.85161 0 1.66797 0.183641 1.66797 0.410156V13.5898C1.66797 13.8163 1.85161 14 2.07812 14H11.9219C12.1484 14 12.332 13.8163 12.332 13.5898V0.410156C12.332 0.183641 12.1484 0 11.9219 0ZM6.58965 11.8672H3.71872C3.49221 11.8672 3.30857 11.6835 3.30857 11.457C3.30857 11.2305 3.49221 11.0469 3.71872 11.0469H6.58965C6.81617 11.0469 6.99981 11.2305 6.99981 11.457C6.99981 11.6835 6.81617 11.8672 6.58965 11.8672ZM10.2812 10.2266H3.71872C3.49221 10.2266 3.30857 10.0429 3.30857 9.81641C3.30857 9.58989 3.49221 9.40625 3.71872 9.40625H10.2812C10.5077 9.40625 10.6913 9.58989 10.6913 9.81641C10.6913 10.0429 10.5077 10.2266 10.2812 10.2266ZM10.2812 8.58594H3.71872C3.49221 8.58594 3.30857 8.4023 3.30857 8.17578C3.30857 7.94927 3.49221 7.76562 3.71872 7.76562H10.2812C10.5077 7.76562 10.6913 7.94927 10.6913 8.17578C10.6913 8.4023 10.5077 8.58594 10.2812 8.58594ZM10.2813 6.94531H3.7187C3.49218 6.94531 3.30854 6.76167 3.30854 6.53516C3.30854 6.30864 3.49218 6.125 3.7187 6.125H4.12891V5.66316C4.12891 5.43665 4.31255 5.25301 4.53906 5.25301C4.76558 5.25301 4.94922 5.43665 4.94922 5.66316V6.125H5.7695V3.69135C5.7695 3.46484 5.95314 3.2812 6.17966 3.2812C6.40618 3.2812 6.58982 3.46484 6.58982 3.69135V6.125H7.41016V5.25602C7.41016 5.0295 7.5938 4.84586 7.82031 4.84586C8.04683 4.84586 8.23047 5.0295 8.23047 5.25602V6.125H9.05078V4.61923C9.05078 4.39272 9.23442 4.20908 9.46094 4.20908C9.68745 4.20908 9.87109 4.39272 9.87109 4.61923V6.125H10.2813C10.5078 6.125 10.6915 6.30864 10.6915 6.53516C10.6915 6.76167 10.5078 6.94531 10.2813 6.94531Z" fill="#99CFE5"/>
</svg>
