<svg width="18" height="11" viewBox="0 0 18 11" fill="none" xmlns="http://www.w3.org/2000/svg">
<path d="M16.2793 6.31386C15.1693 5.59238 13.8558 5.16689 12.5424 5.0189C11.2104 4.8709 9.85996 5.0374 8.5835 5.40739C7.30703 5.77738 6.08607 6.40636 5.0501 7.23883C4.53211 7.66432 4.05112 8.12681 3.62564 8.64479C3.20015 9.16278 2.84866 9.73627 2.55267 10.3467C2.47867 10.5132 2.53417 10.6982 2.70066 10.7722C2.86716 10.8462 3.05215 10.7907 3.14465 10.6242C3.42214 10.0693 3.77363 9.55127 4.16212 9.07028C4.55061 8.5893 5.0131 8.14531 5.49408 7.75682C6.47456 6.97984 7.60302 6.38786 8.78699 5.99937C9.98946 5.61088 11.2474 5.44439 12.5054 5.53688C13.7634 5.62938 15.0028 5.96237 16.0943 6.59135C16.1868 6.64685 16.2793 6.60985 16.3348 6.53585C16.3903 6.48036 16.3718 6.36936 16.2793 6.31386Z" fill="#99CFE5"/>
<path d="M2.36793 2.31799C1.05447 2.31799 0 3.37246 0 4.68593C0 5.99939 2.36793 9.0888 2.36793 9.0888C2.36793 9.0888 4.75437 5.99939 4.75437 4.68593C4.75437 3.39096 3.6814 2.31799 2.36793 2.31799ZM2.36793 6.09189C1.60945 6.09189 0.980473 5.46291 0.980473 4.70443C0.980473 3.94595 1.60945 3.31697 2.36793 3.31697C3.12641 3.31697 3.75539 3.94595 3.75539 4.70443C3.75539 5.46291 3.14491 6.09189 2.36793 6.09189Z" fill="#99CFE5"/>
<path d="M17.9999 2.52154C17.9999 1.52256 17.1859 0.708588 16.187 0.708588C15.188 0.708588 14.374 1.52256 14.374 2.52154C14.374 3.52051 16.187 5.88844 16.187 5.88844C16.187 5.88844 17.9999 3.53901 17.9999 2.52154ZM15.1325 2.52154C15.1325 1.92955 15.6135 1.46707 16.187 1.46707C16.7605 1.46707 17.2414 1.94805 17.2414 2.52154C17.2414 3.11352 16.7605 3.57601 16.187 3.57601C15.6135 3.57601 15.1325 3.11352 15.1325 2.52154Z" fill="#99CFE5"/>
</svg>
