<svg width="19" height="12" viewBox="0 0 19 12" fill="none" xmlns="http://www.w3.org/2000/svg">
<path d="M14.4764 2.3802C12.1456 2.95975 9.91902 3.7805 7.85447 4.82223C7.38632 5.05852 7.23346 5.54705 7.50738 5.93199C7.87822 6.453 8.31036 6.9446 8.79844 7.39972C9.26429 7.83431 9.9443 8.08409 10.6599 8.08409H18.214C17.7627 5.93015 16.5306 3.92976 14.6707 2.33147L14.4764 2.3802ZM8.40614 5.90073C8.14525 5.90073 7.93339 5.73125 7.93339 5.52253C7.93339 5.31382 8.14525 5.14464 8.40614 5.14464C8.66703 5.14464 8.87889 5.31413 8.87889 5.52253C8.87889 5.73125 8.66703 5.90073 8.40614 5.90073Z" fill="#99CFE5"/>
<path d="M10.661 8.6998C9.72161 8.6998 8.82937 8.37186 8.21755 7.8012C7.69807 7.31634 7.23719 6.79287 6.84221 6.23752C6.36563 5.56755 6.63227 4.71707 7.44675 4.30607C9.50516 3.26741 11.7195 2.44266 14.038 1.85054L13.7986 1.68718L13.553 1.52935L13.3025 1.37825L13.0458 1.23328L12.7834 1.09537L12.5156 0.963886L12.2424 0.840067L11.9635 0.723604L11.8222 0.668131L11.6793 0.614803L11.5356 0.563314L11.3904 0.51397L11.2444 0.466772L11.0966 0.422026L10.9475 0.378812L10.797 0.337743L10.6464 0.299433L10.4943 0.262962L10.3399 0.228942L10.1848 0.197068L10.0289 0.167339L9.87102 0.140062L9.71242 0.115237L9.55228 0.0928639L9.35422 0.068652L9.15462 0.0484242L8.95388 0.031261L8.7516 0.0180824L8.54855 0.00858146L8.34436 0.00245168L8.1394 0L7.93406 0.00122584L7.72795 0.00612949L7.52184 0.0144046L7.31534 0.0263573L7.10924 0.0419881L6.90351 0.0609898L6.69778 0.0833629L6.49282 0.109108L6.28863 0.138836L6.08559 0.171324L5.88331 0.207795L5.68256 0.247331L5.48297 0.290545L5.28528 0.33713L5.08914 0.387087L4.8949 0.440415L4.70297 0.497114L4.51333 0.556878L4.32599 0.62032L4.14134 0.687133L3.95937 0.757011L3.78007 0.83026L3.60423 0.90688L3.43145 0.986566L3.26212 1.06962L3.10581 1.15115L2.95257 1.23512L2.80278 1.32186L2.65605 1.41135L2.51277 1.5036L2.37294 1.59861L2.23655 1.69577L2.104 1.79537L1.97489 1.89774L1.84924 2.00225L1.72741 2.10921L1.60903 2.2174L1.49487 2.32834L1.38415 2.44144L1.27765 2.55667L1.17498 2.67406L1.07652 2.79328L0.981892 2.91434L0.89148 3.03724L0.804899 3.16167L0.722531 3.28794L0.644379 3.41574L0.57044 3.54508L0.501098 3.67595L0.435971 3.80835L0.37544 3.94228L0.319125 4.07713L0.267022 4.21321L0.219901 4.35082L0.176993 4.48935L0.139066 4.6288L0.105736 4.76947L0.0793022 4.90004L0.0566991 5.03121L0.0379272 5.1633L0.0229863 5.2957L0.011493 5.42872L0.00383111 5.56234L0 5.69658V5.83082L0.00306496 5.96567L0.00996068 6.10053L0.0199214 6.23569L0.0333299 6.37054L0.0498034 6.506L0.0697247 6.64116L0.0927107 6.77663L0.118762 6.91332L0.179675 7.18394L0.252082 7.45334L0.335215 7.72151L0.429075 7.98723L0.532513 8.25111L0.645528 8.51162L0.767355 8.76937L0.89761 9.02283L1.07039 9.33146L1.25504 9.63335L1.45158 9.92849L1.6596 10.2166L1.8795 10.4976L2.1109 10.7719L2.3534 11.0389L2.60701 11.2991C3.05563 11.7422 3.73065 12 4.44361 12H16.2504C17.0527 12 17.7675 11.5948 18.0334 10.9892C18.3564 10.2549 18.4613 9.47152 18.3395 8.69949H10.661V8.6998Z" fill="#99CFE5"/>
</svg>
