<svg width="14" height="14" viewBox="0 0 14 14" fill="none" xmlns="http://www.w3.org/2000/svg">
<path d="M3.30859 5.35938V7.4375H3.99219V7.02734C3.99219 6.8008 4.1758 6.61719 4.40234 6.61719C4.62889 6.61719 4.8125 6.8008 4.8125 7.02734V7.4375H5.63281V7.02734C5.63281 6.8008 5.81642 6.61719 6.04297 6.61719C6.26952 6.61719 6.45312 6.8008 6.45312 7.02734V7.4375H7.13672V5.35938H3.30859Z" fill="#99CFE5"/>
<path d="M3.99219 4.12891C3.99219 3.90236 4.1758 3.71875 4.40234 3.71875C4.62889 3.71875 4.8125 3.90236 4.8125 4.12891V4.53906H5.63281V4.12891C5.63281 3.90236 5.81642 3.71875 6.04297 3.71875C6.26952 3.71875 6.45312 3.90236 6.45312 4.12891V4.53906H7.13672V2.46094H3.30859V4.53906H3.99219V4.12891Z" fill="#99CFE5"/>
<path d="M3.30859 9.89844H7.95703V11.5391H3.30859V9.89844Z" fill="#99CFE5"/>
<path d="M12.1953 0H1.80469C1.27693 0 0.847656 0.429276 0.847656 0.957031V13.043C0.847656 13.5707 1.27693 14 1.80469 14H12.1953C12.7231 14 13.1523 13.5707 13.1523 13.043V0.957031C13.1523 0.429276 12.7231 0 12.1953 0ZM2.48828 2.05078C2.48828 1.82423 2.67189 1.64062 2.89844 1.64062H7.54688C7.77342 1.64062 7.95703 1.82423 7.95703 2.05078V7.84766C7.95703 8.0742 7.77342 8.25781 7.54688 8.25781H2.89844C2.67189 8.25781 2.48828 8.0742 2.48828 7.84766V2.05078ZM8.77734 11.9492C8.77734 12.1758 8.59373 12.3594 8.36719 12.3594H2.89844C2.67189 12.3594 2.48828 12.1758 2.48828 11.9492V9.48828C2.48828 9.26173 2.67189 9.07812 2.89844 9.07812H8.36719C8.59373 9.07812 8.77734 9.26173 8.77734 9.48828V11.9492ZM9.1875 8.20312C8.96095 8.20312 8.77734 8.01952 8.77734 7.79297C8.77734 7.56642 8.96095 7.38281 9.1875 7.38281C9.41405 7.38281 9.59766 7.56642 9.59766 7.79297C9.59766 8.01952 9.41405 8.20312 9.1875 8.20312ZM9.1875 6.5625C8.96095 6.5625 8.77734 6.37889 8.77734 6.15234C8.77734 5.9258 8.96095 5.74219 9.1875 5.74219C9.41405 5.74219 9.59766 5.9258 9.59766 6.15234C9.59766 6.37889 9.41405 6.5625 9.1875 6.5625ZM11.5117 11.5391C11.5117 11.7656 11.3281 11.9492 11.1016 11.9492C10.875 11.9492 10.6914 11.7656 10.6914 11.5391V9.89844C10.6914 9.67189 10.875 9.48828 11.1016 9.48828C11.3281 9.48828 11.5117 9.67189 11.5117 9.89844V11.5391ZM11.1016 8.20312H10.5547C10.3281 8.20312 10.1445 8.01952 10.1445 7.79297C10.1445 7.56642 10.3281 7.38281 10.5547 7.38281H11.1016C11.3281 7.38281 11.5117 7.56642 11.5117 7.79297C11.5117 8.01952 11.3281 8.20312 11.1016 8.20312ZM11.1016 6.5625H10.5723C10.3459 6.5625 10.1622 6.37889 10.1622 6.15234C10.1622 5.9258 10.3459 5.74219 10.5723 5.74219H11.1016C11.3281 5.74219 11.5117 5.9258 11.5117 6.15234C11.5117 6.37889 11.3281 6.5625 11.1016 6.5625ZM11.5117 4.51172C11.5117 4.73827 11.3281 4.92188 11.1016 4.92188H9.1875C8.96095 4.92188 8.77734 4.73827 8.77734 4.51172V2.05078C8.77734 1.82423 8.96095 1.64062 9.1875 1.64062H11.1016C11.3281 1.64062 11.5117 1.82423 11.5117 2.05078V4.51172Z" fill="#99CFE5"/>
<path d="M9.59766 2.46094H10.6914V4.10156H9.59766V2.46094Z" fill="#99CFE5"/>
</svg>
