<svg width="27" height="26" viewBox="0 0 27 26" fill="none" xmlns="http://www.w3.org/2000/svg">
<path d="M0.305498 22.8131H2.03008C2.9198 24.6906 4.87176 26 7.13734 26C9.18484 26 11.046 24.9289 12.0353 23.2259C13.0165 24.9289 14.8704 26 16.9148 26C19.1748 26 21.1213 24.6897 22.0019 22.8131H23.7197C23.8855 22.8131 24.0199 22.6788 24.0199 22.5128V18.5756C24.0199 18.4096 23.8855 18.2753 23.7197 18.2753H21.971C21.0768 16.4324 19.15 15.1506 16.9167 15.1506L7.13925 15.0884C7.13866 15.0884 7.13793 15.0884 7.13734 15.0884C4.87176 15.0884 2.9198 16.3979 2.03008 18.2753H0.305498C0.139687 18.2753 0.00524902 18.4096 0.00524902 18.5756V22.5128C0.00524902 22.6788 0.139687 22.8131 0.305498 22.8131ZM23.4194 18.8758V22.2126H22.2442C22.4133 21.6956 22.5058 21.1459 22.5058 20.5753C22.5058 19.9814 22.4033 19.4111 22.2207 18.8758H23.4194ZM7.13646 15.6889L16.9148 15.7511C19.6666 15.7511 21.9053 17.9153 21.9053 20.5753C21.9053 23.2353 19.6666 25.3995 16.9148 25.3995C14.8995 25.3995 13.0928 24.2387 12.3119 22.4422C12.2644 22.3328 12.1565 22.2618 12.0372 22.2616C12.0371 22.2616 12.0368 22.2616 12.0366 22.2616C11.9176 22.2616 11.8097 22.3319 11.7617 22.441C10.9718 24.2381 9.15669 25.3995 7.13734 25.3995C4.36795 25.3995 2.11476 23.2215 2.11476 20.5442C2.11476 17.8672 4.36751 15.6895 7.13646 15.6889ZM0.605747 18.8758H1.78554C1.61081 19.4022 1.51427 19.9622 1.51427 20.5442C1.51427 21.1262 1.61081 21.6862 1.78554 22.2126H0.605747V18.8758Z" fill="#00567A"/>
<path d="M7.14447 24.3818C8.62402 24.3818 9.96781 23.5892 10.6513 22.3137C10.9087 21.8334 11.4267 21.5353 12.0031 21.5353C12.5796 21.5353 13.0976 21.8334 13.355 22.3137C14.0385 23.5892 15.3823 24.3818 16.8618 24.3818C19.0411 24.3818 20.814 22.6603 20.814 20.5442C20.814 18.4281 19.0411 16.7066 16.8618 16.7066H7.14447C4.96517 16.7066 3.19226 18.4281 3.19226 20.5442C3.19226 22.6603 4.96517 24.3818 7.14447 24.3818ZM7.14447 17.3071H16.8618C18.7099 17.3071 20.2135 18.7594 20.2135 20.5442C20.2135 22.329 18.7099 23.7813 16.8618 23.7813C15.6039 23.7813 14.463 23.1101 13.8842 22.0299C13.5221 21.3543 12.8013 20.9348 12.0031 20.9348C11.205 20.9348 10.4842 21.3543 10.122 22.0299C9.54324 23.1101 8.40235 23.7813 7.14447 23.7813C5.29635 23.7813 3.79276 22.329 3.79276 20.5442C3.79276 18.7594 5.29635 17.3071 7.14447 17.3071Z" fill="#00567A"/>
<path d="M6.1466 22.4665C6.20524 22.5251 6.28206 22.5545 6.35889 22.5545C6.43571 22.5545 6.51253 22.5251 6.57117 22.4665C6.68846 22.3492 6.68846 22.1592 6.57117 22.0419L5.66647 21.1374C5.54918 21.0201 5.35918 21.0201 5.24189 21.1374C5.12461 21.2547 5.12461 21.4447 5.24189 21.5619L6.1466 22.4665Z" fill="#00567A"/>
<path d="M7.50355 22.0144C7.56219 22.073 7.63902 22.1023 7.71584 22.1023C7.79266 22.1023 7.86948 22.073 7.92812 22.0144C8.04541 21.8971 8.04541 21.7071 7.92812 21.5898L6.11886 19.7804C6.00157 19.6631 5.81157 19.6631 5.69429 19.7804C5.577 19.8977 5.577 20.0877 5.69429 20.2049L7.50355 22.0144Z" fill="#00567A"/>
<path d="M0.0071837 14.3049C0.0071837 15.1878 0.725553 15.9062 1.60856 15.9062C2.49157 15.9062 3.20994 15.1878 3.20994 14.3049V13.0544C12.7972 11.1306 19.5748 12.797 20.8245 13.1462V14.3049C20.8245 15.1878 21.5429 15.9062 22.4259 15.9062C23.3088 15.9062 24.0271 15.1878 24.0271 14.3049V12.2085C24.0271 12.2084 24.0271 12.2084 24.0271 12.2083C24.0271 12.2083 24.0271 12.2082 24.0271 12.2082C24.0271 5.81821 18.0735 2 12.3174 2H11.7097C5.95367 2 0 5.81821 0 12.2082C0 12.2208 0.00568098 12.2315 0.0071837 12.2438V14.3049ZM23.4266 14.3049C23.4266 14.8568 22.9776 15.3057 22.4257 15.3057C21.8739 15.3057 21.425 14.8568 21.425 14.3049V12.9216C21.425 12.7914 21.3413 12.6761 21.2176 12.636C21.1419 12.6113 19.3296 12.0311 16.1465 11.722C13.2187 11.4376 8.53409 11.3441 2.84914 12.5149C2.70957 12.5436 2.60944 12.6665 2.60944 12.809V14.3049C2.60944 14.8568 2.16039 15.3057 1.60856 15.3057C1.05674 15.3057 0.607682 14.8568 0.607682 14.3049V12.2085C0.607682 12.1974 0.602551 12.1881 0.601396 12.1774C0.603706 11.4647 0.68641 10.7867 0.837762 10.1443H23.1893C23.3429 10.7962 23.4266 11.4843 23.4266 12.2085V14.3049ZM12.3174 2.6005C12.4841 2.6005 12.651 2.60409 12.8179 2.61076V6.59112C12.8179 7.14294 12.3689 7.59214 11.817 7.59214C11.2652 7.59214 10.8162 7.14294 10.8162 6.59112V2.63431C11.1139 2.61314 11.4121 2.6005 11.7097 2.6005H12.3174ZM10.2157 2.69002V6.59112C10.2157 7.47427 10.934 8.19264 11.817 8.19264C12.7 8.19264 13.4184 7.47427 13.4184 6.59112V2.65009C17.6486 3.02005 21.7556 5.4993 23.0258 9.54376H1.00125C2.232 5.62463 6.12639 3.17475 10.2157 2.69002Z" fill="#00567A"/>
<circle cx="22.5" cy="4.5" r="4.5" fill="#C4C4C4"/>
</svg>
