<svg width="27" height="26" viewBox="0 0 27 26" fill="none" xmlns="http://www.w3.org/2000/svg">
<path d="M0.30562 22.8131H2.0302C2.91992 24.6906 4.87189 26 7.13746 26C9.18496 26 11.0461 24.9289 12.0354 23.2259C13.0167 24.9289 14.8705 26 16.9149 26C19.1749 26 21.1214 24.6897 22.002 22.8131H23.7198C23.8856 22.8131 24.02 22.6788 24.02 22.5128V18.5756C24.02 18.4096 23.8856 18.2753 23.7198 18.2753H21.9711C21.077 16.4324 19.1501 15.1506 16.9168 15.1506L7.13937 15.0884C7.13878 15.0884 7.13805 15.0884 7.13746 15.0884C4.87189 15.0884 2.91992 16.3979 2.0302 18.2753H0.30562C0.139809 18.2753 0.00537109 18.4096 0.00537109 18.5756V22.5128C0.00537109 22.6788 0.139809 22.8131 0.30562 22.8131ZM23.4195 18.8758V22.2126H22.2443C22.4134 21.6956 22.5059 21.1459 22.5059 20.5753C22.5059 19.9814 22.4034 19.4111 22.2208 18.8758H23.4195ZM7.13658 15.6889L16.9149 15.7511C19.6667 15.7511 21.9054 17.9153 21.9054 20.5753C21.9054 23.2353 19.6667 25.3995 16.9149 25.3995C14.8997 25.3995 13.0929 24.2387 12.3121 22.4422C12.2646 22.3328 12.1567 22.2618 12.0373 22.2616C12.0372 22.2616 12.0369 22.2616 12.0367 22.2616C11.9177 22.2616 11.8098 22.3319 11.7619 22.441C10.9719 24.2381 9.15681 25.3995 7.13746 25.3995C4.36807 25.3995 2.11489 23.2215 2.11489 20.5442C2.11489 17.8672 4.36763 15.6895 7.13658 15.6889ZM0.60587 18.8758H1.78566C1.61093 19.4022 1.51439 19.9622 1.51439 20.5442C1.51439 21.1262 1.61093 21.6862 1.78566 22.2126H0.60587V18.8758Z" fill="#00567A"/>
<path d="M7.14435 24.3818C8.62389 24.3818 9.96768 23.5892 10.6512 22.3137C10.9086 21.8334 11.4266 21.5353 12.003 21.5353C12.5795 21.5353 13.0974 21.8334 13.3549 22.3137C14.0383 23.5892 15.3821 24.3818 16.8617 24.3818C19.041 24.3818 20.8139 22.6603 20.8139 20.5442C20.8139 18.4281 19.041 16.7066 16.8617 16.7066H7.14435C4.96505 16.7066 3.19214 18.4281 3.19214 20.5442C3.19214 22.6603 4.96505 24.3818 7.14435 24.3818ZM7.14435 17.3071H16.8617C18.7098 17.3071 20.2134 18.7594 20.2134 20.5442C20.2134 22.329 18.7098 23.7813 16.8617 23.7813C15.6038 23.7813 14.4629 23.1101 13.8841 22.0299C13.522 21.3543 12.8011 20.9348 12.003 20.9348C11.2049 20.9348 10.484 21.3543 10.1219 22.0299C9.54311 23.1101 8.40223 23.7813 7.14435 23.7813C5.29623 23.7813 3.79264 22.329 3.79264 20.5442C3.79264 18.7594 5.29623 17.3071 7.14435 17.3071Z" fill="#00567A"/>
<path d="M6.14672 22.4665C6.20536 22.5251 6.28219 22.5545 6.35901 22.5545C6.43583 22.5545 6.51265 22.5251 6.57129 22.4665C6.68858 22.3492 6.68858 22.1592 6.57129 22.0419L5.66659 21.1374C5.5493 21.0201 5.3593 21.0201 5.24202 21.1374C5.12473 21.2547 5.12473 21.4447 5.24202 21.5619L6.14672 22.4665Z" fill="#00567A"/>
<path d="M7.50367 22.0144C7.56232 22.073 7.63914 22.1023 7.71596 22.1023C7.79278 22.1023 7.8696 22.073 7.92825 22.0144C8.04553 21.8971 8.04553 21.7071 7.92825 21.5898L6.11898 19.7804C6.0017 19.6631 5.81169 19.6631 5.69441 19.7804C5.57712 19.8977 5.57712 20.0877 5.69441 20.2049L7.50367 22.0144Z" fill="#00567A"/>
<path d="M0.0071837 14.3049C0.0071837 15.1878 0.725553 15.9062 1.60856 15.9062C2.49157 15.9062 3.20994 15.1878 3.20994 14.3049V13.0544C12.7972 11.1306 19.5748 12.797 20.8245 13.1462V14.3049C20.8245 15.1878 21.5429 15.9062 22.4259 15.9062C23.3088 15.9062 24.0271 15.1878 24.0271 14.3049V12.2085C24.0271 12.2084 24.0271 12.2084 24.0271 12.2083C24.0271 12.2083 24.0271 12.2082 24.0271 12.2082C24.0271 5.81821 18.0735 2 12.3174 2H11.7097C5.95367 2 0 5.81821 0 12.2082C0 12.2208 0.00568098 12.2315 0.0071837 12.2438V14.3049ZM23.4266 14.3049C23.4266 14.8568 22.9776 15.3057 22.4257 15.3057C21.8739 15.3057 21.425 14.8568 21.425 14.3049V12.9216C21.425 12.7914 21.3413 12.6761 21.2176 12.636C21.1419 12.6113 19.3296 12.0311 16.1465 11.722C13.2187 11.4376 8.53409 11.3441 2.84914 12.5149C2.70957 12.5436 2.60944 12.6665 2.60944 12.809V14.3049C2.60944 14.8568 2.16039 15.3057 1.60856 15.3057C1.05674 15.3057 0.607682 14.8568 0.607682 14.3049V12.2085C0.607682 12.1974 0.602551 12.1881 0.601396 12.1774C0.603706 11.4647 0.68641 10.7867 0.837762 10.1443H23.1893C23.3429 10.7962 23.4266 11.4843 23.4266 12.2085V14.3049ZM12.3174 2.6005C12.4841 2.6005 12.651 2.60409 12.8179 2.61076V6.59112C12.8179 7.14294 12.3689 7.59214 11.817 7.59214C11.2652 7.59214 10.8162 7.14294 10.8162 6.59112V2.63431C11.1139 2.61314 11.4121 2.6005 11.7097 2.6005H12.3174ZM10.2157 2.69002V6.59112C10.2157 7.47427 10.934 8.19264 11.817 8.19264C12.7 8.19264 13.4184 7.47427 13.4184 6.59112V2.65009C17.6486 3.02005 21.7556 5.4993 23.0258 9.54376H1.00125C2.232 5.62463 6.12639 3.17475 10.2157 2.69002Z" fill="#00567A"/>
<circle cx="22.5" cy="4.5" r="4.5" fill="#FFB11A"/>
</svg>
