<svg width="17" height="24" viewBox="0 0 17 24" fill="none" xmlns="http://www.w3.org/2000/svg">
<path d="M8.24131 21.922C11.6398 21.922 14.4046 19.1572 14.4046 15.7587C14.4046 12.3602 11.6398 9.59541 8.24131 9.59541C4.84283 9.59541 2.078 12.3602 2.078 15.7587C2.07796 19.1572 4.84283 21.922 8.24131 21.922ZM8.24131 10.2985C11.252 10.2985 13.7015 12.7479 13.7015 15.7587C13.7015 18.7694 11.252 21.2189 8.24131 21.2189C5.23058 21.2189 2.78113 18.7695 2.78113 15.7587C2.78113 12.748 5.23053 10.2985 8.24131 10.2985Z" fill="#00567A"/>
<path d="M3.30887 5.61085L3.7502 5.25826V7.49391C3.7502 7.68811 3.90756 7.84547 4.10176 7.84547C4.29596 7.84547 4.45332 7.68811 4.45332 7.49391V5.25826L4.89465 5.61085C4.95948 5.6626 5.03691 5.68777 5.11388 5.68777C5.21706 5.68777 5.31938 5.64254 5.38876 5.55568C5.50998 5.40399 5.48527 5.18274 5.33354 5.06157L4.32118 4.25274C4.19284 4.15018 4.01063 4.15018 3.88229 4.25274L2.86993 5.06157C2.71824 5.18274 2.69349 5.40399 2.81471 5.55568C2.93598 5.70732 3.15713 5.73207 3.30887 5.61085Z" fill="#00567A"/>
<path d="M11.0938 5.55568C11.215 5.70733 11.4361 5.73212 11.5879 5.6109L12.0292 5.25831V7.49397C12.0292 7.68817 12.1866 7.84553 12.3808 7.84553C12.575 7.84553 12.7323 7.68817 12.7323 7.49397V5.25831L13.1737 5.6109C13.2385 5.66265 13.3159 5.68783 13.3929 5.68783C13.4961 5.68783 13.5984 5.64259 13.6678 5.55573C13.789 5.40404 13.7643 5.18279 13.6126 5.06162L12.6002 4.25279C12.4719 4.15023 12.2897 4.15023 12.1613 4.25279L11.149 5.06162C10.9973 5.1827 10.9726 5.40395 11.0938 5.55568Z" fill="#00567A"/>
<path d="M8.24128 7.51735C3.69703 7.51735 0 11.2144 0 15.7587C0 17.8675 0.796312 19.8741 2.24231 21.4088C2.37548 21.5501 2.59795 21.5567 2.73933 21.4236C2.88066 21.2904 2.88722 21.068 2.75409 20.9266C1.43152 19.5229 0.703125 17.6875 0.703125 15.7586C0.703125 11.602 4.08473 8.22043 8.24128 8.22043C12.3978 8.22043 15.7795 11.6021 15.7795 15.7586C15.7795 19.9152 12.3978 23.2969 8.24128 23.2969C6.61392 23.2969 5.06437 22.7863 3.76008 21.8205C3.60398 21.7049 3.3839 21.7378 3.26831 21.8937C3.15276 22.0498 3.18558 22.2699 3.34158 22.3855C4.76784 23.4417 6.46209 24 8.24128 24C12.7856 24 16.4826 20.303 16.4826 15.7587C16.4826 11.2144 12.7856 7.51735 8.24128 7.51735Z" fill="#00567A"/>
<path d="M7.59296 1.4874L8.24124 0.846105L10.0817 2.66692H9.74902C9.40027 2.66692 9.11654 2.95065 9.11654 3.2994V6.68626C9.11654 6.88046 9.2739 7.03782 9.4681 7.03782C9.6623 7.03782 9.81966 6.88046 9.81966 6.68626V3.37004H10.9369C11.0795 3.37004 11.2079 3.28398 11.2621 3.15217C11.3163 3.02035 11.2855 2.86881 11.1842 2.76854L8.48846 0.101637C8.35149 -0.0338789 8.13095 -0.0338789 7.99398 0.101637L7.09848 0.987527C6.96043 1.12407 6.95921 1.34668 7.09576 1.48468C7.2324 1.62282 7.45501 1.624 7.59296 1.4874Z" fill="#00567A"/>
<path d="M5.54563 3.37004H6.66289V6.68625C6.66289 6.88046 6.82025 7.03782 7.01446 7.03782C7.20866 7.03782 7.36602 6.88046 7.36602 6.68625V3.2994C7.36602 2.95065 7.08224 2.66691 6.73349 2.66691H6.40082L6.59375 2.47604C6.7318 2.33944 6.73302 2.11688 6.59647 1.97888C6.45983 1.84079 6.23722 1.83962 6.09932 1.97616L5.29841 2.76854C5.19707 2.8688 5.16632 3.0203 5.2205 3.15216C5.27469 3.28402 5.40308 3.37004 5.54563 3.37004Z" fill="#00567A"/>
<path d="M11.4584 16.1189H10.5184V15.2155H11.4584C11.5997 15.2155 11.7142 15.1011 11.7142 14.9599C11.7142 14.8186 11.5997 14.7041 11.4584 14.7041H10.5184V13.4506C10.5184 13.2677 10.4823 13.1333 10.411 13.0515C10.3433 12.9737 10.2542 12.9375 10.1308 12.9375C10.0132 12.9375 9.92744 12.9735 9.861 13.0508C9.79056 13.1327 9.7548 13.2673 9.7548 13.4507V14.7043H7.98663L7.23483 13.5666C7.17049 13.4651 7.10999 13.37 7.05124 13.2787C6.99834 13.1965 6.94675 13.1296 6.89802 13.0796C6.85488 13.0353 6.80572 13.0011 6.74822 12.9748C6.69396 12.95 6.62499 12.9376 6.54338 12.9376C6.4393 12.9376 6.34482 12.9661 6.25435 13.0247C6.16482 13.0826 6.10294 13.1543 6.06514 13.2437C6.03196 13.3287 6.01441 13.459 6.01441 13.6271V14.7042H5.08376C4.94254 14.7042 4.82812 14.8187 4.82812 14.9599C4.82812 15.1012 4.94254 15.2156 5.08377 15.2156H6.01442V16.1191H5.08377C4.94254 16.1191 4.82812 16.2335 4.82812 16.3748C4.82812 16.516 4.94254 16.6304 5.08377 16.6304H6.01442V18.0616C6.01442 18.2391 6.05174 18.3721 6.12564 18.4566C6.19592 18.5371 6.28503 18.5745 6.40604 18.5745C6.52279 18.5745 6.61121 18.5369 6.68453 18.4562C6.75961 18.3736 6.79759 18.2407 6.79759 18.0616V16.6304H8.39758L9.26341 17.9581C9.32362 18.0458 9.38579 18.1344 9.44778 18.2213C9.50372 18.2993 9.56474 18.368 9.62913 18.4254C9.68711 18.4773 9.74928 18.5154 9.8139 18.5386C9.88042 18.5625 9.95816 18.5747 10.0444 18.5747C10.2786 18.5747 10.5184 18.503 10.5184 17.9714V16.6304H11.4584C11.5996 16.6304 11.7141 16.5159 11.7141 16.3747C11.7142 16.2334 11.5997 16.1189 11.4584 16.1189ZM9.75478 15.2155V16.1189H8.92167L8.32472 15.2155H9.75478ZM6.7976 14.1775L7.14117 14.7041H6.7976V14.1775ZM6.7976 16.1189V15.2155H7.47477L8.06402 16.1189H6.7976ZM9.75478 17.3799L9.25965 16.6304H9.75478V17.3799Z" fill="#00567A"/>
</svg>
