<svg width="33" height="19" viewBox="0 0 33 19" fill="none" xmlns="http://www.w3.org/2000/svg">
<path d="M3.75271 8C1.67113 8 0 9.67113 0 11.7527C0 13.8343 3.75271 18.7304 3.75271 18.7304C3.75271 18.7304 7.53475 13.8343 7.53475 11.7527C7.53475 9.70045 5.8343 8 3.75271 8ZM3.75271 13.9809C2.55067 13.9809 1.55386 12.9841 1.55386 11.782C1.55386 10.58 2.55067 9.58318 3.75271 9.58318C4.95475 9.58318 5.95157 10.58 5.95157 11.782C5.95157 12.9841 4.98407 13.9809 3.75271 13.9809Z" fill="#00567A"/>
<path d="M32.7463 2.87317C32.7463 1.29 31.4563 0 29.8732 0C28.29 0 27 1.29 27 2.87317C27 4.45635 29.8732 8.20906 29.8732 8.20906C29.8732 8.20906 32.7463 4.48567 32.7463 2.87317ZM28.202 2.87317C28.202 1.93499 28.9643 1.20204 29.8732 1.20204C30.782 1.20204 31.5443 1.96431 31.5443 2.87317C31.5443 3.81135 30.782 4.5443 29.8732 4.5443C28.9643 4.5443 28.202 3.81135 28.202 2.87317Z" fill="#FFB11A"/>
<path d="M5.5 18.5C15.4998 10 23.357 16 30.5 9" stroke="#00567A"/>
</svg>
